<svg width="856" height="988" viewBox="0 0 856 988" fill="none" xmlns="http://www.w3.org/2000/svg">
<path d="M725.3 418.4V665.6L428 837.3L130.7 665.6V322.4L386.6 174.6L301.1 572.7L456.2 551.5L428 731.4L607.9 417.5L477.4 431.6L555 224L601.3 100.1L574.8 84.8L428 0L0.200195 247V741L428 988L855.8 741V446.2L725.3 418.4Z" fill="#E5E5E5"/>
<path d="M725.3 322.7V418.4L855.8 446.2V248.2L725.3 322.7Z" fill="#E5E5E5"/>
<path d="M725.3 322.4V322.7L855.8 248.2V247L685 148.4L638.6 272.3L725.3 322.4Z" fill="#E5E5E5"/>
</svg>
