<?xml version="1.0" encoding="utf-8"?>
<!-- Generator: Adobe Illustrator 27.3.1, SVG Export Plug-In . SVG Version: 6.00 Build 0)  -->
<svg version="1.1" id="Layer_1" xmlns="http://www.w3.org/2000/svg" xmlns:xlink="http://www.w3.org/1999/xlink" x="0px" y="0px"
	 viewBox="0 0 1080 1080" style="enable-background:new 0 0 1080 1080;" xml:space="preserve">
<style type="text/css">
	.st0{fill:#FCB72E;}
	.st1{fill:#0B914A;}
	.st2{fill:#E5E5E5;}
	.st3{fill:#F5AD00;}
	.st4{fill:#007E31;}
	.st5{fill:#FFFFFF;}
</style>
<g>
	<polygon class="st2" points="837.3,464.4 837.3,711.6 540,883.3 242.7,711.6 242.7,368.4 498.6,220.6 413.1,618.7 568.2,597.5 
		540,777.4 719.9,463.5 589.4,477.6 667,270 713.3,146.1 686.8,130.8 540,46 112.2,293 112.2,787 540,1034 967.8,787 967.8,492.2 	
		"/>
	<polygon class="st2" points="837.3,368.7 837.3,464.4 967.8,492.2 967.8,294.2 	"/>
	<polygon class="st2" points="837.3,368.4 837.3,368.7 967.8,294.2 967.8,293 797,194.4 750.6,318.3 	"/>
</g>
<g>
	<g>
		<path class="st5" d="M561.4,1035.2c1.9,0,1.9-3,0-3C559.5,1032.2,559.5,1035.2,561.4,1035.2L561.4,1035.2z"/>
	</g>
</g>
</svg>
